HIERARCHY
ROOT pelvis
{
	OFFSET 0.000000 0.000000 0.000000
	CHANNELS 6 Xposition Yposition Zposition Xrotation Yrotation Zrotation
	JOINT l_hip
	{
		OFFSET 0.195211 -0.245059 -0.022011
		CHANNELS 3 Xrotation Yrotation Zrotation
		JOINT l_knee
		{
			OFFSET 0.083896 -0.996307 -0.018298
			CHANNELS 3 Xrotation Yrotation Zrotation
			JOINT l_ankle
			{
				OFFSET -0.031606 -1.048662 -0.119000
				CHANNELS 3 Xrotation Yrotation Zrotation
				JOINT l_foot
				{
					OFFSET 0.063841 -0.149483 0.312863
					CHANNELS 3 Xrotation Yrotation Zrotation
					End Site
					{
						OFFSET 0.000000 0.000000 0.000000
					}
				}
			}
		}
	}
	JOINT r_hip
	{
		OFFSET -0.188785 -0.243354 -0.013119
		CHANNELS 3 Xrotation Yrotation Zrotation
		JOINT r_knee
		{
			OFFSET -0.098896 -1.013926 -0.025127
			CHANNELS 3 Xrotation Yrotation Zrotation
			JOINT r_ankle
			{
				OFFSET 0.038376 -1.049454 -0.114596
				CHANNELS 3 Xrotation Yrotation Zrotation
				JOINT r_foot
				{
					OFFSET -0.060300 -0.126955 0.322518
					CHANNELS 3 Xrotation Yrotation Zrotation
					End Site
					{
						OFFSET 0.000000 0.000000 0.000000
					}
				}
			}
		}
	}
	JOINT spine1
	{
		OFFSET -0.006861 0.282462 -0.060688
		CHANNELS 3 Xrotation Yrotation Zrotation
		JOINT spine2
		{
			OFFSET 0.009796 0.349212 -0.004686
			CHANNELS 3 Xrotation Yrotation Zrotation
			JOINT spine3
			{
				OFFSET 0.005545 0.134239 0.076232
				CHANNELS 3 Xrotation Yrotation Zrotation
				JOINT neck
				{
					OFFSET -0.005369 0.569656 -0.136135
					CHANNELS 3 Xrotation Yrotation Zrotation
					JOINT head
					{
						OFFSET 0.009621 0.170484 0.137338
						CHANNELS 3 Xrotation Yrotation Zrotation
						End Site
						{
							OFFSET 0.000000 0.000000 0.000000
						}
					}
				}
				JOINT l_collar
				{
					OFFSET 0.205981 0.322192 -0.100872
					CHANNELS 3 Xrotation Yrotation Zrotation
					JOINT l_shoulder
					{
						OFFSET 0.233388 0.086823 -0.019950
						CHANNELS 3 Xrotation Yrotation Zrotation
						JOINT l_elbow
						{
							OFFSET 0.687295 -0.032736 -0.075278
							CHANNELS 3 Xrotation Yrotation Zrotation
							JOINT l_wrist
							{
								OFFSET 0.651109 0.024639 0.000120
								CHANNELS 3 Xrotation Yrotation Zrotation
								JOINT l_hand
								{
									OFFSET 0.217934 -0.026487 -0.036124
									CHANNELS 3 Xrotation Yrotation Zrotation
									End Site
									{
										OFFSET 0.000000 0.000000 0.000000
									}
								}
							}
						}
					}
				}
				JOINT r_collar
				{
					OFFSET -0.210726 0.316244 -0.114374
					CHANNELS 3 Xrotation Yrotation Zrotation
					JOINT r_shoulder
					{
						OFFSET -0.244017 0.089684 -0.026814
						CHANNELS 3 Xrotation Yrotation Zrotation
						JOINT r_elbow
						{
							OFFSET -0.672913 -0.035979 -0.055153
							CHANNELS 3 Xrotation Yrotation Zrotation
							JOINT r_wrist
							{
								OFFSET -0.670689 0.023586 -0.009661
								CHANNELS 3 Xrotation Yrotation Zrotation
								JOINT r_hand
								{
									OFFSET -0.219937 -0.019827 -0.028502
									CHANNELS 3 Xrotation Yrotation Zrotation
									End Site
									{
										OFFSET 0.000000 0.000000 0.000000
									}
								}
							}
						}
					}
				}
			}
		}
	}
}
MOTION
Frames: 5
Frame Time: 0.016667
0.000000 0.000000 0.000000 0.000000 0.000000 0.000000 -15.406768 -5.835860 -4.195939 13.322690 -9.584495 -1.020243 0.000000 0.000000 0.000000 0.000000 0.000000 0.000000 12.335750 -1.958069 1.300899 8.012410 9.792479 -0.886282 0.000000 0.000000 0.000000 0.000000 0.000000 0.000000 8.679157 5.740140 0.527318 0.831778 -1.673322 -0.011242 4.893567 -0.957214 -1.480887 6.824845 -9.536753 4.760594 14.505441 -16.339371 0.038334 4.514870 6.111011 -27.081867 4.964880 -9.863907 -55.700036 16.752110 -19.818771 5.420146 0.000000 0.000000 0.000000 0.000000 0.000000 0.000000 -3.629485 1.001418 24.195942 1.827367 18.412783 48.743506 7.118919 37.804337 -15.280878 0.000000 0.000000 0.000000 0.000000 0.000000 0.000000 
0.000000 0.000000 0.000000 0.000000 0.000000 0.000000 -14.108483 -5.539380 -4.229579 8.333704 -10.544595 0.008637 0.000000 0.000000 0.000000 0.000000 0.000000 0.000000 13.459974 -2.142107 1.233540 8.268758 9.858241 -0.621581 0.000000 0.000000 0.000000 0.000000 0.000000 0.000000 8.277564 5.943569 0.795506 1.031971 -1.534557 -0.106206 4.748472 -0.731865 -1.461301 7.550916 -9.309320 4.970568 14.083209 -16.490086 -0.267654 4.358139 6.202809 -27.179863 5.514825 -9.327620 -55.832373 16.125964 -18.663697 4.749125 0.000000 0.000000 0.000000 0.000000 0.000000 0.000000 -3.807848 1.316577 23.854249 1.001376 18.867417 48.422284 7.366027 39.164931 -15.933734 0.000000 0.000000 0.000000 0.000000 0.000000 0.000000 
0.000000 0.000000 0.000000 0.000000 0.000000 0.000000 -13.033549 -4.952970 -4.136480 4.971320 -10.965351 0.290165 0.000000 0.000000 0.000000 0.000000 0.000000 0.000000 14.598382 -2.408834 1.278844 9.116760 9.901619 -0.560146 0.000000 0.000000 0.000000 0.000000 0.000000 0.000000 7.964506 6.020411 0.897605 1.174274 -1.453806 -0.120588 4.579020 -0.566341 -1.450964 8.339713 -9.088073 5.123018 13.879917 -16.602704 -0.754253 4.361337 6.489403 -27.275295 6.116081 -8.655909 -55.779864 16.145161 -17.715946 4.350683 0.000000 0.000000 0.000000 0.000000 0.000000 0.000000 -3.998213 1.447874 23.668378 0.402719 19.328157 47.967071 8.048906 40.333409 -16.688432 0.000000 0.000000 0.000000 0.000000 0.000000 0.000000 
0.000000 0.000000 0.000000 0.000000 0.000000 0.000000 -12.757056 -4.782420 -4.130624 3.603688 -10.880175 0.197698 0.000000 0.000000 0.000000 0.000000 0.000000 0.000000 15.406394 -2.523723 1.133758 10.278402 10.048272 -0.567347 0.000000 0.000000 0.000000 0.000000 0.000000 0.000000 7.595718 6.253461 0.892112 1.300904 -1.342112 -0.180245 4.478939 -0.449267 -1.509578 8.797796 -8.918281 5.433912 13.833529 -16.694976 -1.041658 4.327216 6.598567 -27.282737 6.713694 -8.262777 -55.707127 16.720343 -16.928254 4.159692 0.000000 0.000000 0.000000 0.000000 0.000000 0.000000 -4.350018 1.612943 23.419523 -0.272220 19.822281 47.708139 8.645954 41.283296 -17.430636 0.000000 0.000000 0.000000 0.000000 0.000000 0.000000 
0.000000 0.000000 0.000000 0.000000 0.000000 0.000000 -12.763441 -4.868759 -4.135585 3.895861 -10.813683 0.039076 0.000000 0.000000 0.000000 0.000000 0.000000 0.000000 15.964778 -2.589508 1.174561 12.146749 10.271909 -0.762562 0.000000 0.000000 0.000000 0.000000 0.000000 0.000000 7.148492 6.343351 0.705482 1.343026 -1.317272 -0.108562 4.475067 -0.380984 -1.561297 9.163488 -9.024149 5.641895 14.131368 -17.011583 -1.350831 4.452228 6.912720 -27.186037 7.118137 -7.845725 -55.664244 16.878119 -16.356425 3.835617 0.000000 0.000000 0.000000 0.000000 0.000000 0.000000 -4.760803 1.554250 23.285570 -0.702368 20.378874 47.472401 9.209794 42.389601 -18.045011 0.000000 0.000000 0.000000 0.000000 0.000000 0.000000 
